<svg xmlns="http://www.w3.org/2000/svg" version="1.1" xmlns:xlink="http://www.w3.org/1999/xlink" xmlns:svgjs="http://svgjs.dev/svgjs" width="128" height="128" viewBox="0 0 128 128"><g transform="matrix(0.8046875,0,0,0.8046875,12.333870967741937,12.333870967741937)"><svg viewBox="0 0 155 155" data-background-color="#dedede" preserveAspectRatio="xMidYMid meet" height="128" width="128" xmlns="http://www.w3.org/2000/svg" xmlns:xlink="http://www.w3.org/1999/xlink"><g id="tight-bounds" transform="matrix(1,0,0,1,0.25,0.25)"><svg viewBox="0 0 154.5 154.5" height="154.5" width="154.5"><g><svg></svg></g><g><svg viewBox="0 0 154.5 154.5" height="154.5" width="154.5"><g transform="matrix(1,0,0,1,39.0576,56.94244509090909)"><svg viewBox="0 0 76.3848 40.61510981818182" height="40.61510981818182" width="76.3848"><g><svg viewBox="0 0 76.3848 40.61510981818182" height="40.61510981818182" width="76.3848"><g><svg viewBox="0 0 76.3848 40.61510981818182" height="40.61510981818182" width="76.3848"><g id="textblocktransform"><svg viewBox="0 0 76.3848 40.61510981818182" height="40.61510981818182" width="76.3848" id="textblock"><g><svg viewBox="0 0 76.3848 40.61510981818182" height="40.61510981818182" width="76.3848"><g transform="matrix(1,0,0,1,0,0)"><svg width="76.3848" viewBox="4.7 -33.27 62.56 33.27" height="40.61510981818182" data-palette-color="#374151"><path d="M6.93-24.92L6.93-24.92 6.93 0 4.7 0 4.7-33.27 8.29-33.27 20.1-3.99 20.22-3.99 32-33.27 35.52-33.27 35.52 0 33.16 0 33.16-25.2Q33.16-27.73 33.44-30.66L33.44-30.66 33.27-30.66 20.8 0 19.34 0 6.93-30.71 6.75-30.71Q6.93-28.06 6.93-24.92ZM47.22-13.65L47.22 0 44.89 0 44.89-33.27 47.22-33.27 47.22-15.98 50.91-19.67 63.95-33.27 66.91-33.27 53.26-19.21 67.26 0 64.41 0 51.67-17.57 47.22-13.65Z" opacity="1" transform="matrix(1,0,0,1,0,0)" fill="#374151" class="wordmark-text-0" data-fill-palette-color="primary" id="text-0"></path></svg></g></svg></g></svg></g></svg></g></svg></g></svg></g><g><path d="M0 154.5v-154.5h154.5v154.5zM150.837 150.837v-147.174h-147.174v147.174z" fill="#374151" fill-rule="nonzero" stroke="none" stroke-width="1" stroke-linecap="butt" stroke-linejoin="miter" stroke-miterlimit="10" stroke-dasharray="" stroke-dashoffset="0" font-family="none" font-weight="none" font-size="none" text-anchor="none" style="mix-blend-mode: normal" data-fill-palette-color="tertiary"></path></g></svg></g><defs></defs></svg><rect width="154.5" height="154.5" fill="none" stroke="none" visibility="hidden"></rect></g></svg></g></svg>